<svg
   viewBox="0 0 19.999998 20.001389"
   width="19.999998"
   height="20.001389"
   xmlns="http://www.w3.org/2000/svg"
>
  <g
     transform="matrix(0.02000231,0,0,0.02000231,-3.4539589,-11.162243)"
     id="g450">
    <path
       fill="gray"
       d="m 411.20918,558.04769 c -54.72363,26.07585 -109.45262,52.14211 -164.17969,78.21093 0.18785,0.27926 0.37313,0.5603 0.56055,0.83985 -20.40894,-3.9013 -35.4693,0.71097 -48.75391,10.19531 -19.98956,14.27126 -25.93359,35.37391 -25.93359,59.62695 -0.5624,16.34128 0.14075,32.71616 -0.11523,49.07422 0.051,187.11212 -0.17565,353.47325 0.25195,539.49415 -1.4989,23.1971 22.50506,46.7709 26.02734,49.2285 27.04084,18.9377 57.72942,30.0682 86.97656,44.1035 l 330.04688,149.4024 c 19.02636,8.6134 36.85278,16.9728 56.58594,19.164 v 0.045 c 3.10878,0.3449 6.26096,0.5536 9.47656,0.5683 23.62716,0.1031 41.13015,-9.3626 61.69531,-19.1269 123.6583,-58.7086 247.37375,-117.2846 371.03325,-175.9864 30.0174,-14.3323 57.6015,-31.3469 57.6015,-67.1328 0.152,-202.2862 0.059,-397.9021 -0.049,-600.18748 -0.34,-17.94988 -11.9882,-46.17469 -40.7442,-56.16797 -13.5934,-4.72401 -24.4769,-4.5297 -33.75,-2.5586 0.1298,-0.1934 0.2568,-0.38876 0.3868,-0.58203 -54.7272,-26.06885 -109.45596,-52.13505 -164.17972,-78.21093 -69.08085,29.50052 -138.16682,58.99361 -207.24414,88.50195 -4.72096,4.34793 -9.29213,9.19102 -13.78711,14.28125 -4.49498,5.09023 -8.9132,10.42791 -13.33203,15.76758 -4.41884,5.33962 -8.83758,10.68113 -13.33008,15.77734 -4.4925,5.09621 -9.0594,9.94669 -13.77539,14.30664 -18.86393,-17.4398 -35.34081,-42.74109 -54.22461,-60.13281 -69.07721,-29.50792 -138.1634,-59.00146 -207.24414,-88.50195 z m 0.44141,71.86523 c 82.37834,34.71738 164.75828,69.43535 247.13672,104.15234 5.27045,1.90288 8.44801,5.58001 13.89062,5.67774 1.36065,-0.0244 2.57899,-0.27195 3.72461,-0.66016 1.14561,-0.38821 2.21839,-0.91727 3.28516,-1.50195 2.13351,-1.16936 4.24562,-2.56419 6.88086,-3.51563 82.37859,-34.71703 164.75816,-69.43492 247.13671,-104.15234 27.27056,11.88714 54.54195,23.77496 81.81253,35.66211 l 4.9277,2.21875 c -25.41162,10.69347 -50.6328,21.24479 -77.96093,32.98047 30.60524,-12.94168 53.51715,-0.71998 61.28713,4.57422 7.77,5.29428 27.8301,22.38718 27.8301,49.61914 0,23.91474 0.041,58.83844 0.049,90.51758 0,40.5507 0.039,75.78125 0.039,75.78125 l -0.084,0.0469 v 163.20696 c -21.6132,-24.0759 -43.22867,-48.1496 -64.84183,-72.2265 -13.87878,-13.85884 -19.87042,-15.58916 -26.72852,-6.1641 -26.54394,45.5265 -53.08847,113.8902 -79.63281,159.418 V 829.66292 c 0,-28.73334 -11.95476,-44.60259 -28.06836,-55.32617 -16.11366,-10.72368 -38.47759,-12.46343 -52.57227,-7.02735 l -71.57812,29.43164 c -15.02428,5.5253 -22.06695,9.23711 -35.50781,9.06641 -13.44088,-0.1705 -23.30714,-4.52333 -32.88282,-8.51953 C 535.11587,753.99603 430.44032,710.70144 325.76387,667.40901 l 4.07422,-1.83398 c 27.27049,-11.88714 54.54196,-23.77498 81.8125,-35.66211 z"
       id="path446" />
    <g
       transform="matrix(3.9583857,0,0,3.9089632,-503.48047,-6182.8842)"
       id="g448" />
  </g>
</svg>
